pedal_clip_forces_x_-0.09_y_-0.05.mot
version=1
nRows=147
nColumns=4
inDegrees=yes
endheader
time	PedalClip_calcn_r_Fx	PedalClip_calcn_r_Fy	PedalClip_calcn_r_Fz
0	9.1665413224702	10.8327211873179	0
0.00111694	8.99516363574634	11.1512186061685	0
0.00551934	8.82375025010094	11.4655965276156	0
0.00992173	8.65230620267469	11.7758604180242	0
0.01432413	8.48083679794447	12.0820160313096	0
0.01756479	8.30934723734984	12.3840694359149	0
0.02153256	8.13784261236709	12.6820270451786	0
0.02450895	7.96632789693584	12.9758961499868	0
0.02812404	7.79480793917601	13.2656864115789	0
0.03068867	7.62328745233396	13.5514081286527	0
0.03389487	7.45177116922866	13.8330729567934	0
0.03650537	7.28026428769249	14.1106997827041	0
0.03911587	7.10877179067275	14.384309298305	0
0.04172638	6.93729801810037	14.6539212891762	0
0.04332852	6.76584715820435	14.9195557561444	0
0.04570314	6.59442296797699	15.1812332635465	0
0.04722181	6.42302872198237	15.4389749312689	0
0.04942829	6.25166757076766	15.6928024262254	0
0.05061082	6.08034221047947	15.9427379534631	0
0.05179335	5.90905519968415	16.1888042470722	0
0.05227578	5.73780867684939	16.4310245610493	0
0.05381908	5.56660401905845	16.6694226601939	0
0.05500404	5.39544174490912	16.9040228110186	0
0.05670594	5.22432155602759	17.1348497724811	0
0.05804792	5.05324236996913	17.3619287860924	0
0.05938989	4.88220239054333	17.5852855645825	0
0.06063433	4.71119925667186	17.8049462777392	0
0.06168849	4.5402300086009	18.0209375332272	0
0.06317085	4.36929110060208	18.2332863490058	0
0.06422925	4.19837822127007	18.4420201122195	0
0.06528765	4.02748662347527	18.6471662944243	0
0.06565662	3.856610914736	18.8487516548913	0
0.06708694	3.68574544201153	19.0468027036216	0
0.06793938	3.51488443034908	19.2413456977833	0
0.06879181	3.34402216713688	19.4324058119773	0
0.0691706	3.17315265854074	19.6200049099046	0
0.07011914	3.00227029755865	19.8041615324287	0
0.07092658	2.83137033913191	19.9848897088712	0
0.07173403	2.66044938586078	20.1621969557894	0
0.07201266	2.48950548466799	20.3360809546473	0
0.07273449	2.318539128947	20.506524355084	0
0.07356924	2.14755424829639	20.6734879842176	0
0.07440399	1.97655966629504	20.836901747779	0
0.07473032	1.80557074834046	20.9966519180703	0
0.07545464	1.63461175359468	21.1525543345613	0
0.07620566	1.46371839310206	21.3043132201972	0
0.07695669	1.29294063752996	21.4514558183558	0
0.07738093	1.1223439938264	21.5932292467059	0
0.07816439	0.952006980344407	21.7284378793725	0
0.07883485	0.782009806869105	21.855264534927	0
0.0795053	0.613096901829131	21.9715377742599	0
0.07978387	0.444342109069316	22.0821660378592	0
0.08022754	0.275725413431733	22.1875174008663	0
0.08137835	0.107230534486243	22.2885346465741	0
0.08189029	-0.0611481009170987	22.3867723859737	0
0.08211608	-0.229411188918998	22.4841832191945	0
0.08285624	-0.397559068761003	22.5826141777193	0
0.0834767	-0.565594954210747	22.6832613334194	0
0.08409717	-0.733526895970284	22.7863461235389	0
0.08443326	-0.901374593796867	22.8911611400011	0
0.08482473	-1.06917653094566	22.99683424815	0
0.08583557	-1.23696157958288	23.102906306636	0
0.08593665	-1.4047512461466	23.2089713225476	0
0.08610916	-1.57257002775778	23.3148873442945	0
0.0866365	-1.74044072311286	23.4206512631186	0
0.08679921	-1.9084012858358	23.5263148012678	0
0.08737814	-2.07651892985229	23.6319301571174	0
0.08794046	-2.24484853643814	23.7375231605447	0
0.08850278	-2.41343048063489	23.8431031326773	0
0.08894129	-2.58225807487676	23.9486855079127	0
0.08934802	-2.75126363384927	24.0543301948972	0
0.08996141	-2.92035913999171	24.1601370671964	0
0.09057481	-3.0894810812594	24.2662033687402	0
0.09092083	-3.25859065026217	24.3725928624939	0
0.09130616	-3.42766086516917	24.4793431177621	0
0.0918933	-3.59665861076686	24.5864779423578	0
0.09248044	-3.76553862379058	24.6940346994764	0
0.09284827	-3.93427156006323	24.8020739388963	0
0.09322832	-4.10284207560402	24.910659191605	0
0.09377656	-4.27125323805915	25.019821389402	0
0.09432479	-4.43950695160001	25.129565070046	0
0.09472705	-4.60761138305345	25.2398900421277	0
0.09511488	-4.77556756026833	25.3508039567402	0
0.09562337	-4.94337085546884	25.4623218835804	0
0.09613185	-5.11101710580639	25.5744540588777	0
0.09680204	-5.27852161845517	25.6872101778571	0
0.09728696	-5.44589841489485	25.8005847154632	0
0.09738494	-5.6131354745463	25.9145399224881	0
0.09756818	-5.7801865262645	26.0290152769253	0
0.09819143	-5.94701394900982	26.1439902510209	0
0.09839046	-6.11358383000528	26.2594734579205	0
0.0987435	-6.27984846913794	26.3754694159534	0
0.09921374	-6.44571657477039	26.4919316097128	0
0.09968397	-6.61109105151364	26.6088294091815	0
0.09983541	-6.77587407381585	26.7261579105166	0
0.10008593	-6.93993420819107	26.8438851478926	0
0.10053703	-7.10310654975094	26.9619524229431	0
0.10076258	-7.26524440042759	27.0803245473731	0
0.10148492	-7.42621938878337	27.1989630525493	0
0.10211837	-7.58594076879813	27.3178139035641	0
0.10218171	-7.74440239765528	27.4368416100762	0
0.10234973	-7.901712067663	27.5560936187249	0
0.10283389	-8.058037746686	27.6756748737672	0
0.10304599	-8.21353369235303	27.7956765104708	0
0.10341191	-8.36833737761048	27.9161526783508	0
0.10382473	-8.52260422236438	28.0371501184341	0
0.10423756	-8.67650990546143	28.1587148482668	0
0.10431183	-8.83022218386105	28.2809086224555	0
0.10446024	-8.98386992797859	28.4037976032495	0
0.10492592	-9.13753293738047	28.5274439504645	0
0.10513621	-9.29127153075915	28.6518956926271	0
0.10548667	-9.44514043098918	28.7771682837866	0
0.10588382	-9.59920186626155	28.9032484150142	0
0.10603499	-9.75350782780058	29.030127686118	0
0.10627153	-9.90808536899429	29.1578102084518	0
0.10652195	-10.0629459479526	29.2862897588316	0
0.10664715	-10.2181098314263	29.4155401735454	0
0.10695686	-10.3736016136331	29.5455080872979	0
0.10736525	-10.5294333922911	29.6761113882563	0
0.10750101	-10.6855783733338	29.8072931769074	0
0.10772879	-10.8419964694915	29.9390432466238	0
0.10803986	-10.9986905964402	30.0713330561141	0
0.10819539	-11.155700112135	30.2040932349292	0
0.10864463	-11.3130407226352	30.3372423293294	0
0.10932554	-11.4706843771495	30.4707001979862	0
0.10939363	-11.6285763960287	30.6044017625185	0
0.10946172	-11.7866648303274	30.7383074750248	0
0.10980217	-11.9449327844016	30.8724027180929	0
0.10993128	-12.1034016470121	31.0066770041213	0
0.11027139	-12.2620852075231	31.1410878024828	0
0.11064932	-12.4209410827776	31.2755699970092	0
0.11074861	-12.579891835037	31.4101177792047	0
0.11106935	-12.7388804106527	31.5447753156829	0
0.11133715	-12.8978927060535	31.6795568248886	0
0.11146104	-13.0569220533029	31.8144261248441	0
0.11193464	-13.2159435031674	31.9493451988904	0
0.11221976	-13.3748834116288	32.0842723512	0
0.11258136	-13.5336349681286	32.2191561592116	0
0.11266872	-13.6920920648269	32.3539736202664	0
0.11283634	-13.8501890460522	32.4887332281242	0
0.11341883	-14.0078943314332	32.6234705323337	0
0.11353266	-14.165158834015	32.7581991993893	0
0.11380359	-14.321894545103	32.8928987956343	0
0.11415854	-14.4779932417233	33.0275277389304	0
0.11425746	-14.6333696523311	33.1620654313813	0
0.11455527	-14.7879816688006	33.2964815214154	0
0.11505251	-14.941829484403	33.4307511231403	0
